<svg width="459" height="424" viewBox="0 0 459 424" version="1.1" xmlns="http://www.w3.org/2000/svg" xmlns:xlink="http://www.w3.org/1999/xlink">
<title>Group</title>
<desc>Created using Figma</desc>
<g id="Canvas" transform="translate(-681 281)">
<g id="Group">
<g id="Group">
<g id="Arrow 2">
<use xlink:href="#path0_stroke" transform="translate(736 121)"/>
</g>
<g id="Line 12" filter="url(#filter0_d)">
<use xlink:href="#path1_stroke" transform="matrix(0.707107 -0.707107 0.707107 0.707107 736 121)"/>
</g>
<g id="Line 13">
<use xlink:href="#path2_stroke" transform="matrix(-1 1.22465e-16 -1.22465e-16 -1 1044 -191)"/>
</g>
<g id="Line 14">
<use xlink:href="#path3_stroke" transform="matrix(6.12323e-17 1 -1 6.12323e-17 1044 -191)"/>
</g>
<g id="x">
<use xlink:href="#path4_fill" transform="translate(1035 121)"/>
</g>
<g id="y = x">
<use xlink:href="#path5_fill" transform="translate(681 -205)"/>
</g>
<g id="Arrow 2">
<use xlink:href="#path0_stroke" transform="matrix(6.12323e-17 -1 1 6.12323e-17 736 121)"/>
</g>
</g>
<g id="Vector">
<use xlink:href="#path6_stroke" transform="translate(735 -71.5)"/>
</g>
<g id="Arrow 3">
<use xlink:href="#path7_stroke" transform="matrix(0.947009 -0.321208 0.321208 0.947009 928.248 -18.8559)"/>
</g>
</g>
</g>
<defs>
<filter id="filter0_d" filterUnits="userSpaceOnUse" x="730" y="-260" width="389" height="389" color-interpolation-filters="sRGB">
<feFlood flood-opacity="0" result="BackgroundImageFix"/>
<feColorMatrix in="SourceAlpha" type="matrix" values="0 0 0 0 0 0 0 0 0 0 0 0 0 0 0 0 0 0 255 0"/>
<feOffset dx="0" dy="4"/>
<feGaussianBlur stdDeviation="2"/>
<feColorMatrix type="matrix" values="0 0 0 0 0 0 0 0 0 0 0 0 0 0 0 0 0 0 0.25 0"/>
<feBlend mode="normal" in2="BackgroundImageFix" result="effect1_dropShadow"/>
<feBlend mode="normal" in="SourceGraphic" in2="effect1_dropShadow" result="shape"/>
</filter>
<path id="path0_stroke" d="M 401.061 1.06066C 401.646 0.474874 401.646 -0.474874 401.061 -1.06066L 391.515 -10.6066C 390.929 -11.1924 389.979 -11.1924 389.393 -10.6066C 388.808 -10.0208 388.808 -9.07107 389.393 -8.48528L 397.879 0L 389.393 8.48528C 388.808 9.07107 388.808 10.0208 389.393 10.6066C 389.979 11.1924 390.929 11.1924 391.515 10.6066L 401.061 1.06066ZM 0 1.5L 400 1.5L 400 -1.5L 0 -1.5L 0 1.5Z"/>
<path id="path1_stroke" d="M 0 -1.11022e-16L 7.44426 -1.11022e-16L 7.44426 -2L 0 -2L 0 -1.11022e-16ZM 22.3328 -1.11022e-16L 37.2213 -1.11022e-16L 37.2213 -2L 22.3328 -2L 22.3328 -1.11022e-16ZM 52.1098 -1.11022e-16L 66.9984 -1.11022e-16L 66.9984 -2L 52.1098 -2L 52.1098 -1.11022e-16ZM 81.8869 -1.11022e-16L 96.7754 -1.11022e-16L 96.7754 -2L 81.8869 -2L 81.8869 -1.11022e-16ZM 111.664 -1.11022e-16L 126.552 -1.11022e-16L 126.552 -2L 111.664 -2L 111.664 -1.11022e-16ZM 141.441 -1.11022e-16L 156.33 -1.11022e-16L 156.33 -2L 141.441 -2L 141.441 -1.11022e-16ZM 171.218 -1.11022e-16L 186.107 -1.11022e-16L 186.107 -2L 171.218 -2L 171.218 -1.11022e-16ZM 200.995 0L 215.884 0L 215.884 -2L 200.995 -2L 200.995 0ZM 230.772 -1.11022e-16L 245.661 -1.11022e-16L 245.661 -2L 230.772 -2L 230.772 -1.11022e-16ZM 260.549 -1.11022e-16L 275.438 -1.11022e-16L 275.438 -2L 260.549 -2L 260.549 -1.11022e-16ZM 290.326 -1.11022e-16L 305.215 -1.11022e-16L 305.215 -2L 290.326 -2L 290.326 -1.11022e-16ZM 320.103 -1.11022e-16L 334.992 -1.11022e-16L 334.992 -2L 320.103 -2L 320.103 -1.11022e-16ZM 349.88 -1.11022e-16L 364.769 -1.11022e-16L 364.769 -2L 349.88 -2L 349.88 -1.11022e-16ZM 379.657 -1.11022e-16L 394.546 -1.11022e-16L 394.546 -2L 379.657 -2L 379.657 -1.11022e-16ZM 409.434 -1.11022e-16L 424.323 -1.11022e-16L 424.323 -2L 409.434 -2L 409.434 -1.11022e-16ZM 439.212 -1.11022e-16L 454.1 -1.11022e-16L 454.1 -2L 439.212 -2L 439.212 -1.11022e-16ZM 468.989 -1.11022e-16L 483.877 -1.11022e-16L 483.877 -2L 468.989 -2L 468.989 -1.11022e-16ZM 498.766 -1.11022e-16L 513.654 -1.11022e-16L 513.654 -2L 498.766 -2L 498.766 -1.11022e-16ZM 528.543 0L 535.987 0L 535.987 -2L 528.543 -2L 528.543 0Z"/>
<path id="path2_stroke" d="M 0 0L 7.7 0L 7.7 -2L 0 -2L 0 0ZM 23.1 0L 38.5 0L 38.5 -2L 23.1 -2L 23.1 0ZM 53.9 0L 69.3 0L 69.3 -2L 53.9 -2L 53.9 0ZM 84.7 0L 100.1 0L 100.1 -2L 84.7 -2L 84.7 0ZM 115.5 0L 130.9 0L 130.9 -2L 115.5 -2L 115.5 0ZM 146.3 0L 161.7 0L 161.7 -2L 146.3 -2L 146.3 0ZM 177.1 -1.11022e-16L 192.5 -1.11022e-16L 192.5 -2L 177.1 -2L 177.1 -1.11022e-16ZM 207.9 0L 223.3 0L 223.3 -2L 207.9 -2L 207.9 0ZM 238.7 0L 254.1 0L 254.1 -2L 238.7 -2L 238.7 0ZM 269.5 0L 284.9 0L 284.9 -2L 269.5 -2L 269.5 0ZM 300.3 0L 308 0L 308 -2L 300.3 -2L 300.3 0Z"/>
<path id="path3_stroke" d="M 0 0L 7.8 0L 7.8 -2L 0 -2L 0 0ZM 23.4 0L 39 0L 39 -2L 23.4 -2L 23.4 0ZM 54.6 0L 70.2 0L 70.2 -2L 54.6 -2L 54.6 0ZM 85.8 0L 101.4 0L 101.4 -2L 85.8 -2L 85.8 0ZM 117 0L 132.6 0L 132.6 -2L 117 -2L 117 0ZM 148.2 0L 163.8 0L 163.8 -2L 148.2 -2L 148.2 0ZM 179.4 0L 195 0L 195 -2L 179.4 -2L 179.4 0ZM 210.6 0L 226.2 0L 226.2 -2L 210.6 -2L 210.6 0ZM 241.8 0L 257.4 0L 257.4 -2L 241.8 -2L 241.8 0ZM 273 0L 288.6 0L 288.6 -2L 273 -2L 273 0ZM 304.2 0L 312 0L 312 -2L 304.2 -2L 304.2 0Z"/>
<path id="path4_fill" d="M 11.8477 13.9492L 14.6602 9.32031L 17.1914 9.32031L 13.043 15.5898L 17.3203 22L 14.8125 22L 11.8828 17.2539L 8.95312 22L 6.43359 22L 10.7109 15.5898L 6.5625 9.32031L 9.07031 9.32031L 11.8477 13.9492Z"/>
<path id="path5_fill" d="M 5.78906 18.8242L 8.74219 9.32031L 11.0625 9.32031L 5.96484 23.957C 5.17578 26.0664 3.92188 27.1211 2.20312 27.1211L 1.79297 27.0859L 0.984375 26.9336L 0.984375 25.1758L 1.57031 25.2227C 2.30469 25.2227 2.875 25.0742 3.28125 24.7773C 3.69531 24.4805 4.03516 23.9375 4.30078 23.1484L 4.78125 21.8594L 0.257812 9.32031L 2.625 9.32031L 5.78906 18.8242ZM 28.875 12.4609L 19.1016 12.4609L 19.1016 10.5742L 28.875 10.5742L 28.875 12.4609ZM 28.875 17.3242L 19.1016 17.3242L 19.1016 15.4492L 28.875 15.4492L 28.875 17.3242ZM 42.3398 13.9492L 45.1523 9.32031L 47.6836 9.32031L 43.5352 15.5898L 47.8125 22L 45.3047 22L 42.375 17.2539L 39.4453 22L 36.9258 22L 41.2031 15.5898L 37.0547 9.32031L 39.5625 9.32031L 42.3398 13.9492Z"/>
<path id="path6_stroke" d="M 137.5 109L 136.538 107.849L 137.5 109ZM 229 66L 229.498 67.4149L 229 66ZM 0.534594 193.902C 49.1169 175.367 74.5315 162.03 92.3003 149.54C 110.129 136.989 120.3 125.321 138.462 110.151L 136.538 107.849C 118.2 123.179 108.121 134.761 90.5747 147.085C 72.9685 159.47 47.8831 172.633 -0.534594 191.098L 0.534594 193.902ZM 138.462 110.151C 141.313 107.769 147.474 104.218 155.504 100.104C 163.49 96.0124 173.161 91.4449 182.931 87.0208C 202.472 78.1721 222.287 69.9535 229.498 67.4149L 228.502 64.5851C 221.213 67.1521 201.278 75.4198 181.694 84.2879C 171.902 88.7221 162.166 93.3207 154.136 97.4339C 146.151 101.525 139.687 105.217 136.538 107.849L 138.462 110.151ZM 229.498 67.4149C 264.967 54.9259 294.599 49.384 380.234 1.30798L 378.766 -1.30798C 293.401 46.616 264.033 52.0741 228.502 64.5851L 229.498 67.4149Z"/>
<path id="path7_stroke" d="M 222.269 0.626349C 222.615 0.195819 222.546 -0.43362 222.116 -0.779543L 215.1 -6.41668C 214.669 -6.7626 214.04 -6.69402 213.694 -6.26349C 213.348 -5.83296 213.417 -5.20352 213.847 -4.85759L 220.084 0.153195L 215.073 6.38954C 214.727 6.82007 214.795 7.44951 215.226 7.79543C 215.656 8.14135 216.286 8.07277 216.632 7.64224L 222.269 0.626349ZM 0.108325 25.129L 2.62525 24.8547L 2.4086 22.8665L -0.108325 23.1407L 0.108325 25.129ZM 7.6591 24.3062L 12.6929 23.7577L 12.4763 21.7694L 7.44245 22.318L 7.6591 24.3062ZM 17.7268 23.2091L 22.7606 22.6606L 22.544 20.6724L 17.5101 21.2209L 17.7268 23.2091ZM 27.7945 22.1121L 32.8283 21.5636L 32.6117 19.5754L 27.5778 20.1239L 27.7945 22.1121ZM 37.8622 21.0151L 42.896 20.4665L 42.6794 18.4783L 37.6455 19.0268L 37.8622 21.0151ZM 47.9299 19.918L 52.9637 19.3695L 52.7471 17.3813L 47.7132 17.9298L 47.9299 19.918ZM 57.9976 18.821L 63.0314 18.2725L 62.8148 16.2842L 57.7809 16.8328L 57.9976 18.821ZM 68.0653 17.724L 73.0991 17.1754L 72.8825 15.1872L 67.8486 15.7357L 68.0653 17.724ZM 78.133 16.6269L 83.1668 16.0784L 82.9502 14.0902L 77.9163 14.6387L 78.133 16.6269ZM 88.2007 15.5299L 93.2345 14.9814L 93.0179 12.9931L 87.984 13.5416L 88.2007 15.5299ZM 98.2684 14.4328L 103.302 13.8843L 103.086 11.8961L 98.0517 12.4446L 98.2684 14.4328ZM 108.336 13.3358L 113.37 12.7873L 113.153 10.799L 108.119 11.3476L 108.336 13.3358ZM 118.404 12.2388L 123.438 11.6902L 123.221 9.70201L 118.187 10.2505L 118.404 12.2388ZM 128.471 11.1417L 133.505 10.5932L 133.289 8.60497L 128.255 9.15349L 128.471 11.1417ZM 138.539 10.0447L 143.573 9.49616L 143.356 7.50793L 138.323 8.05645L 138.539 10.0447ZM 148.607 8.94764L 153.641 8.39913L 153.424 6.41089L 148.39 6.95941L 148.607 8.94764ZM 158.675 7.85061L 163.708 7.30209L 163.492 5.31386L 158.458 5.86237L 158.675 7.85061ZM 168.742 6.75357L 173.776 6.20505L 173.559 4.21682L 168.526 4.76534L 168.742 6.75357ZM 178.81 5.65653L 183.844 5.10801L 183.627 3.11978L 178.593 3.6683L 178.81 5.65653ZM 188.878 4.55949L 193.912 4.01097L 193.695 2.02274L 188.661 2.57126L 188.878 4.55949ZM 198.945 3.46245L 203.979 2.91393L 203.763 0.925702L 198.729 1.47422L 198.945 3.46245ZM 209.013 2.36541L 214.047 1.81689L 213.83 -0.171337L 208.796 0.377183L 209.013 2.36541ZM 219.081 1.26838L 221.598 0.994116L 221.381 -0.994116L 218.864 -0.719856L 219.081 1.26838ZM 223.048 1.2527C 223.74 0.391638 223.603 -0.867241 222.742 -1.55909L 208.71 -12.8334C 207.849 -13.5252 206.59 -13.388 205.899 -12.527C 205.207 -11.6659 205.344 -10.407 206.205 -9.71519L 218.678 0.306389L 208.656 12.7791C 207.964 13.6401 208.101 14.899 208.962 15.5909C 209.823 16.2827 211.082 16.1455 211.774 15.2845L 223.048 1.2527ZM 0.21665 26.1231L 2.73357 25.8488L 2.30028 21.8724L -0.21665 22.1466L 0.21665 26.1231ZM 7.76742 25.3003L 12.8013 24.7518L 12.368 20.7753L 7.33412 21.3238L 7.76742 25.3003ZM 17.8351 24.2033L 22.869 23.6547L 22.4357 19.6783L 17.4018 20.2268L 17.8351 24.2033ZM 27.9028 23.1062L 32.9367 22.5577L 32.5034 18.5812L 27.4695 19.1298L 27.9028 23.1062ZM 37.9705 22.0092L 43.0044 21.4607L 42.5711 17.4842L 37.5372 18.0327L 37.9705 22.0092ZM 48.0382 20.9121L 53.0721 20.3636L 52.6388 16.3872L 47.6049 16.9357L 48.0382 20.9121ZM 58.1059 19.8151L 63.1398 19.2666L 62.7065 15.2901L 57.6726 15.8386L 58.1059 19.8151ZM 68.1736 18.7181L 73.2075 18.1695L 72.7742 14.1931L 67.7403 14.7416L 68.1736 18.7181ZM 78.2413 17.621L 83.2752 17.0725L 82.8419 13.096L 77.808 13.6446L 78.2413 17.621ZM 88.309 16.524L 93.3429 15.9755L 92.9096 11.999L 87.8757 12.5475L 88.309 16.524ZM 98.3767 15.427L 103.411 14.8784L 102.977 10.902L 97.9434 11.4505L 98.3767 15.427ZM 108.444 14.3299L 113.478 13.7814L 113.045 9.80493L 108.011 10.3535L 108.444 14.3299ZM 118.512 13.2329L 123.546 12.6844L 123.113 8.70789L 118.079 9.25641L 118.512 13.2329ZM 128.58 12.1358L 133.614 11.5873L 133.18 7.61086L 128.147 8.15937L 128.58 12.1358ZM 138.648 11.0388L 143.681 10.4903L 143.248 6.51382L 138.214 7.06234L 138.648 11.0388ZM 148.715 9.94176L 153.749 9.39324L 153.316 5.41678L 148.282 5.9653L 148.715 9.94176ZM 158.783 8.84472L 163.817 8.2962L 163.383 4.31974L 158.35 4.86826L 158.783 8.84472ZM 168.851 7.74768L 173.884 7.19916L 173.451 3.2227L 168.417 3.77122L 168.851 7.74768ZM 178.918 6.65064L 183.952 6.10213L 183.519 2.12566L 178.485 2.67418L 178.918 6.65064ZM 188.986 5.55361L 194.02 5.00509L 193.587 1.02862L 188.553 1.57714L 188.986 5.55361ZM 199.054 4.45657L 204.088 3.90805L 203.654 -0.0684136L 198.62 0.480106L 199.054 4.45657ZM 209.121 3.35953L 214.155 2.81101L 213.722 -1.16545L 208.688 -0.616933L 209.121 3.35953ZM 219.189 2.26249L 221.706 1.98823L 221.273 -1.98823L 218.756 -1.71397L 219.189 2.26249Z"/>
</defs>
</svg>
