<svg width="477" height="424" viewBox="0 0 477 424" version="1.1" xmlns="http://www.w3.org/2000/svg" xmlns:xlink="http://www.w3.org/1999/xlink">
<title>Group</title>
<desc>Created using Figma</desc>
<g id="Canvas" transform="translate(-681 -211)">
<g id="Group">
<g id="Group">
<g id="Arrow 2">
<use xlink:href="#path0_stroke" transform="translate(736 613)"/>
</g>
<g id="Line 12" filter="url(#filter0_d)">
<use xlink:href="#path1_stroke" transform="matrix(0.707107 -0.707107 0.707107 0.707107 736 613)"/>
</g>
<g id="Line 13">
<use xlink:href="#path2_stroke" transform="matrix(-1 1.22465e-16 -1.22465e-16 -1 1044 301)"/>
</g>
<g id="Line 14">
<use xlink:href="#path3_stroke" transform="matrix(6.12323e-17 1 -1 6.12323e-17 1044 301)"/>
</g>
<g id="x">
<use xlink:href="#path4_fill" transform="translate(1035 613)"/>
</g>
<g id="y = x">
<use xlink:href="#path5_fill" transform="translate(681 287)"/>
</g>
<g id="Arrow 2">
<use xlink:href="#path0_stroke" transform="matrix(6.12323e-17 -1 1 6.12323e-17 736 613)"/>
</g>
</g>
<g id="Vector">
<use xlink:href="#path6_stroke" transform="translate(735 244)"/>
</g>
<g id="Arrow 3">
<use xlink:href="#path7_stroke" transform="matrix(0.947009 -0.321208 0.321208 0.947009 888.89 337.467)"/>
</g>
</g>
</g>
<defs>
<filter id="filter0_d" filterUnits="userSpaceOnUse" x="730" y="232" width="389" height="389" color-interpolation-filters="sRGB">
<feFlood flood-opacity="0" result="BackgroundImageFix"/>
<feColorMatrix in="SourceAlpha" type="matrix" values="0 0 0 0 0 0 0 0 0 0 0 0 0 0 0 0 0 0 255 0"/>
<feOffset dx="0" dy="4"/>
<feGaussianBlur stdDeviation="2"/>
<feColorMatrix type="matrix" values="0 0 0 0 0 0 0 0 0 0 0 0 0 0 0 0 0 0 0.25 0"/>
<feBlend mode="normal" in2="BackgroundImageFix" result="effect1_dropShadow"/>
<feBlend mode="normal" in="SourceGraphic" in2="effect1_dropShadow" result="shape"/>
</filter>
<path id="path0_stroke" d="M 401.061 1.06066C 401.646 0.474874 401.646 -0.474874 401.061 -1.06066L 391.515 -10.6066C 390.929 -11.1924 389.979 -11.1924 389.393 -10.6066C 388.808 -10.0208 388.808 -9.07107 389.393 -8.48528L 397.879 0L 389.393 8.48528C 388.808 9.07107 388.808 10.0208 389.393 10.6066C 389.979 11.1924 390.929 11.1924 391.515 10.6066L 401.061 1.06066ZM 0 1.5L 400 1.5L 400 -1.5L 0 -1.5L 0 1.5Z"/>
<path id="path1_stroke" d="M 0 -1.11022e-16L 7.44426 -1.11022e-16L 7.44426 -2L 0 -2L 0 -1.11022e-16ZM 22.3328 -1.11022e-16L 37.2213 -1.11022e-16L 37.2213 -2L 22.3328 -2L 22.3328 -1.11022e-16ZM 52.1098 -1.11022e-16L 66.9984 -1.11022e-16L 66.9984 -2L 52.1098 -2L 52.1098 -1.11022e-16ZM 81.8869 -1.11022e-16L 96.7754 -1.11022e-16L 96.7754 -2L 81.8869 -2L 81.8869 -1.11022e-16ZM 111.664 -1.11022e-16L 126.552 -1.11022e-16L 126.552 -2L 111.664 -2L 111.664 -1.11022e-16ZM 141.441 -1.11022e-16L 156.33 -1.11022e-16L 156.33 -2L 141.441 -2L 141.441 -1.11022e-16ZM 171.218 -1.11022e-16L 186.107 -1.11022e-16L 186.107 -2L 171.218 -2L 171.218 -1.11022e-16ZM 200.995 0L 215.884 0L 215.884 -2L 200.995 -2L 200.995 0ZM 230.772 -1.11022e-16L 245.661 -1.11022e-16L 245.661 -2L 230.772 -2L 230.772 -1.11022e-16ZM 260.549 -1.11022e-16L 275.438 -1.11022e-16L 275.438 -2L 260.549 -2L 260.549 -1.11022e-16ZM 290.326 -1.11022e-16L 305.215 -1.11022e-16L 305.215 -2L 290.326 -2L 290.326 -1.11022e-16ZM 320.103 -1.11022e-16L 334.992 -1.11022e-16L 334.992 -2L 320.103 -2L 320.103 -1.11022e-16ZM 349.88 -1.11022e-16L 364.769 -1.11022e-16L 364.769 -2L 349.88 -2L 349.88 -1.11022e-16ZM 379.657 -1.11022e-16L 394.546 -1.11022e-16L 394.546 -2L 379.657 -2L 379.657 -1.11022e-16ZM 409.434 -1.11022e-16L 424.323 -1.11022e-16L 424.323 -2L 409.434 -2L 409.434 -1.11022e-16ZM 439.212 -1.11022e-16L 454.1 -1.11022e-16L 454.1 -2L 439.212 -2L 439.212 -1.11022e-16ZM 468.989 -1.11022e-16L 483.877 -1.11022e-16L 483.877 -2L 468.989 -2L 468.989 -1.11022e-16ZM 498.766 -1.11022e-16L 513.654 -1.11022e-16L 513.654 -2L 498.766 -2L 498.766 -1.11022e-16ZM 528.543 0L 535.987 0L 535.987 -2L 528.543 -2L 528.543 0Z"/>
<path id="path2_stroke" d="M 0 0L 7.7 0L 7.7 -2L 0 -2L 0 0ZM 23.1 0L 38.5 0L 38.5 -2L 23.1 -2L 23.1 0ZM 53.9 0L 69.3 0L 69.3 -2L 53.9 -2L 53.9 0ZM 84.7 0L 100.1 0L 100.1 -2L 84.7 -2L 84.7 0ZM 115.5 0L 130.9 0L 130.9 -2L 115.5 -2L 115.5 0ZM 146.3 0L 161.7 0L 161.7 -2L 146.3 -2L 146.3 0ZM 177.1 -1.11022e-16L 192.5 -1.11022e-16L 192.5 -2L 177.1 -2L 177.1 -1.11022e-16ZM 207.9 0L 223.3 0L 223.3 -2L 207.9 -2L 207.9 0ZM 238.7 0L 254.1 0L 254.1 -2L 238.7 -2L 238.7 0ZM 269.5 0L 284.9 0L 284.9 -2L 269.5 -2L 269.5 0ZM 300.3 0L 308 0L 308 -2L 300.3 -2L 300.3 0Z"/>
<path id="path3_stroke" d="M 0 0L 7.8 0L 7.8 -2L 0 -2L 0 0ZM 23.4 0L 39 0L 39 -2L 23.4 -2L 23.4 0ZM 54.6 0L 70.2 0L 70.2 -2L 54.6 -2L 54.6 0ZM 85.8 0L 101.4 0L 101.4 -2L 85.8 -2L 85.8 0ZM 117 0L 132.6 0L 132.6 -2L 117 -2L 117 0ZM 148.2 0L 163.8 0L 163.8 -2L 148.2 -2L 148.2 0ZM 179.4 0L 195 0L 195 -2L 179.4 -2L 179.4 0ZM 210.6 0L 226.2 0L 226.2 -2L 210.6 -2L 210.6 0ZM 241.8 0L 257.4 0L 257.4 -2L 241.8 -2L 241.8 0ZM 273 0L 288.6 0L 288.6 -2L 273 -2L 273 0ZM 304.2 0L 312 0L 312 -2L 304.2 -2L 304.2 0Z"/>
<path id="path4_fill" d="M 11.8477 13.9492L 14.6602 9.32031L 17.1914 9.32031L 13.043 15.5898L 17.3203 22L 14.8125 22L 11.8828 17.2539L 8.95312 22L 6.43359 22L 10.7109 15.5898L 6.5625 9.32031L 9.07031 9.32031L 11.8477 13.9492Z"/>
<path id="path5_fill" d="M 5.78906 18.8242L 8.74219 9.32031L 11.0625 9.32031L 5.96484 23.957C 5.17578 26.0664 3.92187 27.1211 2.20312 27.1211L 1.79297 27.0859L 0.984375 26.9336L 0.984375 25.1758L 1.57031 25.2227C 2.30469 25.2227 2.875 25.0742 3.28125 24.7773C 3.69531 24.4805 4.03516 23.9375 4.30078 23.1484L 4.78125 21.8594L 0.257812 9.32031L 2.625 9.32031L 5.78906 18.8242ZM 28.875 12.4609L 19.1016 12.4609L 19.1016 10.5742L 28.875 10.5742L 28.875 12.4609ZM 28.875 17.3242L 19.1016 17.3242L 19.1016 15.4492L 28.875 15.4492L 28.875 17.3242ZM 42.3398 13.9492L 45.1523 9.32031L 47.6836 9.32031L 43.5352 15.5898L 47.8125 22L 45.3047 22L 42.375 17.2539L 39.4453 22L 36.9258 22L 41.2031 15.5898L 37.0547 9.32031L 39.5625 9.32031L 42.3398 13.9492Z"/>
<path id="path6_stroke" d="M 183.5 323.5L 184.329 324.75L 183.5 323.5ZM 255 130L 256.068 131.053L 255 130ZM 0.534594 370.402C 48.869 351.954 84.6536 347.185 113.439 343.722C 142.131 340.271 164.153 338.13 184.329 324.75L 182.671 322.25C 163.206 335.158 141.978 337.268 113.08 340.744C 84.2758 344.209 48.131 349.046 -0.534594 367.598L 0.534594 370.402ZM 184.329 324.75C 196.63 316.593 202.688 304.723 206.045 290.589C 209.376 276.535 210.091 260.063 211.557 242.437C 214.49 207.172 220.342 167.17 256.068 131.053L 253.932 128.947C 217.658 165.83 211.51 206.828 208.568 242.188C 207.097 259.874 206.405 276.122 203.127 289.896C 199.874 303.589 194.12 314.657 182.671 322.25L 184.329 324.75ZM 256.068 131.053C 296.984 89.5684 320.533 67.014 342.923 49.8786C 365.286 32.7556 386.471 21.0652 422.718 1.31719L 421.282 -1.31719C 385.029 18.4348 363.645 30.2444 341.099 47.4964C 318.58 64.736 294.879 87.4316 253.932 128.947L 256.068 131.053Z"/>
<path id="path7_stroke" d="M 78.6678 -0.345792C 78.4768 -0.864005 77.9019 -1.12928 77.3836 -0.938297L 68.9389 2.17392C 68.4207 2.36491 68.1554 2.93982 68.3464 3.45803C 68.5374 3.97625 69.1123 4.24152 69.6305 4.05054L 77.1369 1.28412L 79.9034 8.79058C 80.0943 9.30879 80.6693 9.57407 81.1875 9.38308C 81.7057 9.1921 81.971 8.61719 81.78 8.09897L 78.6678 -0.345792ZM 0.908003 168.879L 1.93076 166.662L 0.114753 165.824L -0.908003 168.041L 0.908003 168.879ZM 3.97627 162.229L 6.02178 157.796L 4.20578 156.958L 2.16027 161.391L 3.97627 162.229ZM 8.06729 153.363L 10.1128 148.929L 8.2968 148.091L 6.25129 152.525L 8.06729 153.363ZM 12.1583 144.496L 14.2038 140.063L 12.3878 139.225L 10.3423 143.658L 12.1583 144.496ZM 16.2493 135.63L 18.2949 131.197L 16.4788 130.359L 14.4333 134.792L 16.2493 135.63ZM 20.3404 126.764L 22.3859 122.33L 20.5699 121.493L 18.5244 125.926L 20.3404 126.764ZM 24.4314 117.897L 26.4769 113.464L 24.6609 112.626L 22.6154 117.059L 24.4314 117.897ZM 28.5224 109.031L 30.5679 104.598L 28.7519 103.76L 26.7064 108.193L 28.5224 109.031ZM 32.6134 100.165L 34.6589 95.7316L 32.8429 94.8937L 30.7974 99.3268L 32.6134 100.165ZM 36.7045 91.2985L 38.75 86.8653L 36.934 86.0274L 34.8885 90.4605L 36.7045 91.2985ZM 40.7955 82.4322L 42.841 77.999L 41.025 77.1611L 38.9795 81.5942L 40.7955 82.4322ZM 44.8865 73.5659L 46.932 69.1327L 45.116 68.2948L 43.0705 72.728L 44.8865 73.5659ZM 48.9775 64.6996L 51.023 60.2664L 49.207 59.4285L 47.1615 63.8617L 48.9775 64.6996ZM 53.0686 55.8333L 55.1141 51.4002L 53.2981 50.5622L 51.2525 54.9954L 53.0686 55.8333ZM 57.1596 46.967L 59.2051 42.5339L 57.3891 41.6959L 55.3436 46.1291L 57.1596 46.967ZM 61.2506 38.1007L 63.2961 33.6676L 61.4801 32.8296L 59.4346 37.2628L 61.2506 38.1007ZM 65.3416 29.2344L 67.3871 24.8013L 65.5711 23.9633L 63.5256 28.3965L 65.3416 29.2344ZM 69.4326 20.3681L 71.4782 15.935L 69.6622 15.0971L 67.6166 19.5302L 69.4326 20.3681ZM 73.5237 11.5018L 75.5692 7.06869L 73.7532 6.23076L 71.7077 10.6639L 73.5237 11.5018ZM 77.6147 2.63554L 78.6374 0.418975L 76.8214 -0.418954L 75.7987 1.79761L 77.6147 2.63554ZM 79.6061 -0.691594C 79.2241 -1.72802 78.0743 -2.25857 77.0378 -1.8766L 60.1483 4.34784C 59.1119 4.7298 58.5813 5.87963 58.9633 6.91606C 59.3453 7.95248 60.4951 8.48303 61.5315 8.10107L 76.5444 2.56823L 82.0773 17.5811C 82.4592 18.6176 83.6091 19.1481 84.6455 18.7662C 85.6819 18.3842 86.2125 17.2344 85.8305 16.1979L 79.6061 -0.691594ZM 1.81601 169.297L 2.83876 167.081L -0.793249 165.405L -1.81601 167.622L 1.81601 169.297ZM 4.88427 162.648L 6.92978 158.215L 3.29777 156.539L 1.25226 160.972L 4.88427 162.648ZM 8.9753 153.781L 11.0208 149.348L 7.3888 147.672L 5.34329 152.106L 8.9753 153.781ZM 13.0663 144.915L 15.1118 140.482L 11.4798 138.806L 9.43431 143.239L 13.0663 144.915ZM 17.1573 136.049L 19.2029 131.616L 15.5708 129.94L 13.5253 134.373L 17.1573 136.049ZM 21.2484 127.183L 23.2939 122.749L 19.6619 121.074L 17.6164 125.507L 21.2484 127.183ZM 25.3394 118.316L 27.3849 113.883L 23.7529 112.207L 21.7074 116.64L 25.3394 118.316ZM 29.4304 109.45L 31.4759 105.017L 27.8439 103.341L 25.7984 107.774L 29.4304 109.45ZM 33.5214 100.584L 35.567 96.1506L 31.9349 94.4747L 29.8894 98.9079L 33.5214 100.584ZM 37.6125 91.7174L 39.658 87.2843L 36.026 85.6084L 33.9805 90.0416L 37.6125 91.7174ZM 41.7035 82.8511L 43.749 78.418L 40.117 76.7421L 38.0715 81.1753L 41.7035 82.8511ZM 45.7945 73.9848L 47.84 69.5517L 44.208 67.8758L 42.1625 72.309L 45.7945 73.9848ZM 49.8855 65.1186L 51.931 60.6854L 48.299 59.0096L 46.2535 63.4427L 49.8855 65.1186ZM 53.9766 56.2523L 56.0221 51.8191L 52.3901 50.1433L 50.3445 54.5764L 53.9766 56.2523ZM 58.0676 47.386L 60.1131 42.9528L 56.4811 41.277L 54.4356 45.7101L 58.0676 47.386ZM 62.1586 38.5197L 64.2041 34.0865L 60.5721 32.4107L 58.5266 36.8438L 62.1586 38.5197ZM 66.2496 29.6534L 68.2951 25.2202L 64.6631 23.5444L 62.6176 27.9775L 66.2496 29.6534ZM 70.3407 20.7871L 72.3862 16.3539L 68.7542 14.6781L 66.7086 19.1112L 70.3407 20.7871ZM 74.4317 11.9208L 76.4772 7.48765L 72.8452 5.81179L 70.7997 10.2449L 74.4317 11.9208ZM 78.5227 3.05451L 79.5455 0.837939L 75.9134 -0.837918L 74.8907 1.37865L 78.5227 3.05451Z"/>
</defs>
</svg>
