<svg width="1589" height="584" viewBox="0 0 1589 584" version="1.1" xmlns="http://www.w3.org/2000/svg" xmlns:xlink="http://www.w3.org/1999/xlink">
<title>Group</title>
<desc>Created using Figma</desc>
<g id="Canvas" transform="translate(-753 -759)">
<g id="Group">
<g id="Group">
<g id="Group">
<g id="Arrow 2">
<use xlink:href="#path0_stroke" transform="translate(822.894 1017.15)"/>
</g>
<g id="Line 12" filter="url(#filter0_d)">
<use xlink:href="#path1_stroke" transform="matrix(0.707608 -0.706606 0.707608 0.706606 822.894 1017.15)"/>
</g>
<g id="Line 13">
<use xlink:href="#path2_stroke" transform="matrix(-1 1.22291e-16 -1.22638e-16 -1 1012.7 825.154)"/>
</g>
<g id="Line 14">
<use xlink:href="#path3_stroke" transform="matrix(6.13192e-17 1 -1 6.11457e-17 1012.7 825.154)"/>
</g>
<g id="x">
<use xlink:href="#path4_fill" transform="translate(1002 1017)"/>
</g>
<g id="y = x">
<use xlink:href="#path5_fill" transform="translate(766 810)"/>
</g>
<g id="Arrow 2">
<use xlink:href="#path6_stroke" transform="matrix(6.13192e-17 -1 1 6.11457e-17 822.894 1017.15)"/>
</g>
</g>
<g id="Vector">
<use xlink:href="#path7_stroke" transform="translate(822.278 790.077)"/>
</g>
</g>
<g id="Group">
<g id="Group">
<g id="Arrow 2">
<use xlink:href="#path8_stroke" transform="translate(1318 1017)"/>
</g>
<g id="Line 12" filter="url(#filter1_d)">
<use xlink:href="#path9_stroke" transform="matrix(0.707608 -0.706606 0.707608 0.706606 1495 1105.3)"/>
</g>
<g id="Arrow 2">
<use xlink:href="#path10_stroke" transform="matrix(6.13192e-17 -1 1 6.11457e-17 1317.89 1105)"/>
</g>
</g>
<g id="Line 15">
<use xlink:href="#path11_stroke" transform="matrix(0.984428 -0.175791 0.175791 0.984428 1299.24 1064.14)"/>
</g>
</g>
<g id="Group">
<g id="Group">
<g id="Arrow 2">
<use xlink:href="#path12_stroke" transform="translate(1920 1161)"/>
</g>
<g id="Line 12" filter="url(#filter2_d)">
<use xlink:href="#path13_stroke" transform="matrix(0.707107 -0.707107 0.707107 0.707107 2019 1273)"/>
</g>
<g id="Arrow 2">
<use xlink:href="#path14_stroke" transform="matrix(-1.83697e-16 -1 1 -1.83697e-16 1920 1271)"/>
</g>
</g>
<g id="Vector">
<use xlink:href="#path15_stroke" transform="translate(1920 965)"/>
</g>
<g id="Arrow 3">
<use xlink:href="#path16_stroke" transform="matrix(0.947009 -0.321208 0.321208 0.947009 2072.89 995.467)"/>
</g>
</g>
<g id="Line 16">
<use xlink:href="#path17_stroke" transform="translate(753 1112.5)"/>
</g>
<g id="2">
<use xlink:href="#path18_fill" transform="translate(1146 1157)"/>
</g>
<g id="Group">
<g id="Line 17">
<use xlink:href="#path19_stroke" transform="matrix(1 -2.44929e-16 2.44929e-16 1 1132 921)"/>
</g>
<g id="Line 17">
<use xlink:href="#path19_stroke" transform="matrix(6.12323e-17 1 -1 6.12323e-17 1180 873)"/>
</g>
</g>
<g id="Group">
<g id="Line 18">
<use xlink:href="#path20_stroke" transform="translate(1722 1084)"/>
</g>
<g id="Line 18">
<use xlink:href="#path20_stroke" transform="translate(1722 1141)"/>
</g>
</g>
</g>
</g>
<defs>
<filter id="filter0_d" filterUnits="userSpaceOnUse" x="817" y="782" width="244" height="244" color-interpolation-filters="sRGB">
<feFlood flood-opacity="0" result="BackgroundImageFix"/>
<feColorMatrix in="SourceAlpha" type="matrix" values="0 0 0 0 0 0 0 0 0 0 0 0 0 0 0 0 0 0 255 0"/>
<feOffset dx="0" dy="4"/>
<feGaussianBlur stdDeviation="2"/>
<feColorMatrix type="matrix" values="0 0 0 0 0 0 0 0 0 0 0 0 0 0 0 0 0 0 0.25 0"/>
<feBlend mode="normal" in2="BackgroundImageFix" result="effect1_dropShadow"/>
<feBlend mode="normal" in="SourceGraphic" in2="effect1_dropShadow" result="shape"/>
</filter>
<filter id="filter1_d" filterUnits="userSpaceOnUse" x="1489" y="935" width="180" height="179" color-interpolation-filters="sRGB">
<feFlood flood-opacity="0" result="BackgroundImageFix"/>
<feColorMatrix in="SourceAlpha" type="matrix" values="0 0 0 0 0 0 0 0 0 0 0 0 0 0 0 0 0 0 255 0"/>
<feOffset dx="0" dy="4"/>
<feGaussianBlur stdDeviation="2"/>
<feColorMatrix type="matrix" values="0 0 0 0 0 0 0 0 0 0 0 0 0 0 0 0 0 0 0.25 0"/>
<feBlend mode="normal" in2="BackgroundImageFix" result="effect1_dropShadow"/>
<feBlend mode="normal" in="SourceGraphic" in2="effect1_dropShadow" result="shape"/>
</filter>
<filter id="filter2_d" filterUnits="userSpaceOnUse" x="2013" y="954" width="327" height="327" color-interpolation-filters="sRGB">
<feFlood flood-opacity="0" result="BackgroundImageFix"/>
<feColorMatrix in="SourceAlpha" type="matrix" values="0 0 0 0 0 0 0 0 0 0 0 0 0 0 0 0 0 0 255 0"/>
<feOffset dx="0" dy="4"/>
<feGaussianBlur stdDeviation="2"/>
<feColorMatrix type="matrix" values="0 0 0 0 0 0 0 0 0 0 0 0 0 0 0 0 0 0 0.25 0"/>
<feBlend mode="normal" in2="BackgroundImageFix" result="effect1_dropShadow"/>
<feBlend mode="normal" in="SourceGraphic" in2="effect1_dropShadow" result="shape"/>
</filter>
<path id="path0_stroke" d="M 247.563 1.06066C 248.149 0.474874 248.149 -0.474874 247.563 -1.06066L 238.018 -10.6066C 237.432 -11.1924 236.482 -11.1924 235.896 -10.6066C 235.31 -10.0208 235.31 -9.07107 235.896 -8.48528L 244.382 0L 235.896 8.48528C 235.31 9.07107 235.31 10.0208 235.896 10.6066C 236.482 11.1924 237.432 11.1924 238.018 10.6066L 247.563 1.06066ZM 0 1.5L 246.503 1.5L 246.503 -1.5L 0 -1.5L 0 1.5Z"/>
<path id="path1_stroke" d="M 0 0L 7.50164 0L 7.50164 -2L 0 -2L 0 0ZM 22.5049 0L 37.5082 0L 37.5082 -2L 22.5049 -2L 22.5049 0ZM 52.5115 0L 67.5147 0L 67.5147 -2L 52.5115 -2L 52.5115 0ZM 82.518 0L 97.5213 0L 97.5213 -2L 82.518 -2L 82.518 0ZM 112.525 0L 127.528 0L 127.528 -2L 112.525 -2L 112.525 0ZM 142.531 0L 157.534 0L 157.534 -2L 142.531 -2L 142.531 0ZM 172.538 -1.11022e-16L 187.541 -1.11022e-16L 187.541 -2L 172.538 -2L 172.538 -1.11022e-16ZM 202.544 0L 217.547 0L 217.547 -2L 202.544 -2L 202.544 0ZM 232.551 0L 247.554 0L 247.554 -2L 232.551 -2L 232.551 0ZM 262.557 0L 277.561 0L 277.561 -2L 262.557 -2L 262.557 0ZM 292.564 0L 307.567 0L 307.567 -2L 292.564 -2L 292.564 0ZM 322.57 0L 330.072 0L 330.072 -2L 322.57 -2L 322.57 0Z"/>
<path id="path2_stroke" d="M 0 0L 7.90863 0L 7.90863 -2L 0 -2L 0 0ZM 23.7259 0L 39.5432 0L 39.5432 -2L 23.7259 -2L 23.7259 0ZM 55.3604 0L 71.1777 0L 71.1777 -2L 55.3604 -2L 55.3604 0ZM 86.995 0L 102.812 0L 102.812 -2L 86.995 -2L 86.995 0ZM 118.629 0L 134.447 0L 134.447 -2L 118.629 -2L 118.629 0ZM 150.264 0L 166.081 0L 166.081 -2L 150.264 -2L 150.264 0ZM 181.899 0L 189.807 0L 189.807 -2L 181.899 -2L 181.899 0Z"/>
<path id="path3_stroke" d="M 0 0L 8 0L 8 -2L 0 -2L 0 0ZM 24 0L 40 0L 40 -2L 24 -2L 24 0ZM 56 0L 72 0L 72 -2L 56 -2L 56 0ZM 88 0L 104 0L 104 -2L 88 -2L 88 0ZM 120 0L 136 0L 136 -2L 120 -2L 120 0ZM 152 0L 168 0L 168 -2L 152 -2L 152 0ZM 184 0L 192 0L 192 -2L 184 -2L 184 0Z"/>
<path id="path4_fill" d="M 11.8477 13.9492L 14.6602 9.32031L 17.1914 9.32031L 13.043 15.5898L 17.3203 22L 14.8125 22L 11.8828 17.2539L 8.95312 22L 6.43359 22L 10.7109 15.5898L 6.5625 9.32031L 9.07031 9.32031L 11.8477 13.9492Z"/>
<path id="path5_fill" d="M 5.78906 18.8242L 8.74219 9.32031L 11.0625 9.32031L 5.96484 23.957C 5.17578 26.0664 3.92188 27.1211 2.20312 27.1211L 1.79297 27.0859L 0.984375 26.9336L 0.984375 25.1758L 1.57031 25.2227C 2.30469 25.2227 2.875 25.0742 3.28125 24.7773C 3.69531 24.4805 4.03516 23.9375 4.30078 23.1484L 4.78125 21.8594L 0.257812 9.32031L 2.625 9.32031L 5.78906 18.8242ZM 28.875 12.4609L 19.1016 12.4609L 19.1016 10.5742L 28.875 10.5742L 28.875 12.4609ZM 28.875 17.3242L 19.1016 17.3242L 19.1016 15.4492L 28.875 15.4492L 28.875 17.3242ZM 42.3398 13.9492L 45.1523 9.32031L 47.6836 9.32031L 43.5352 15.5898L 47.8125 22L 45.3047 22L 42.375 17.2539L 39.4453 22L 36.9258 22L 41.2031 15.5898L 37.0547 9.32031L 39.5625 9.32031L 42.3398 13.9492Z"/>
<path id="path6_stroke" d="M 247.214 1.06066C 247.8 0.474874 247.8 -0.474874 247.214 -1.06066L 237.669 -10.6066C 237.083 -11.1924 236.133 -11.1924 235.547 -10.6066C 234.961 -10.0208 234.961 -9.07107 235.547 -8.48528L 244.033 0L 235.547 8.48528C 234.961 9.07107 234.961 10.0208 235.547 10.6066C 236.133 11.1924 237.083 11.1924 237.669 10.6066L 247.214 1.06066ZM 0 1.5L 246.154 1.5L 246.154 -1.5L 0 -1.5L 0 1.5Z"/>
<path id="path7_stroke" d="M 113.083 199.077L 113.911 200.328L 113.083 199.077ZM 157.146 80L 158.213 81.0541L 157.146 80ZM 0.533933 228.479C 30.257 217.146 52.2406 214.225 69.9759 212.094C 87.6181 209.975 101.341 208.652 113.911 200.328L 112.255 197.826C 100.396 205.68 87.466 206.972 69.6181 209.116C 51.8634 211.249 29.5199 214.238 -0.533933 225.675L 0.533933 228.479ZM 113.911 200.328C 121.655 195.199 125.448 187.741 127.537 178.958C 129.6 170.255 130.044 160.075 130.947 149.24C 132.753 127.557 136.302 103.132 158.213 81.0541L 156.078 78.9459C 133.618 101.791 129.773 127.212 127.958 148.991C 127.05 159.886 126.628 169.841 124.618 178.263C 122.634 186.605 119.147 193.262 112.255 197.826L 113.911 200.328ZM 158.213 81.0541C 183.422 55.5307 197.904 41.6781 211.678 31.1533C 225.424 20.6408 238.442 13.4695 260.777 1.31762L 259.344 -1.31762C 237.001 10.8382 223.785 18.1285 209.856 28.7698C 195.954 39.3988 181.318 53.3924 156.078 78.9459L 158.213 81.0541Z"/>
<path id="path8_stroke" d="M 305.061 1.06066C 305.646 0.474874 305.646 -0.474874 305.061 -1.06066L 295.515 -10.6066C 294.929 -11.1924 293.979 -11.1924 293.393 -10.6066C 292.808 -10.0208 292.808 -9.07107 293.393 -8.48528L 301.879 0L 293.393 8.48528C 292.808 9.07107 292.808 10.0208 293.393 10.6066C 293.979 11.1924 294.929 11.1924 295.515 10.6066L 305.061 1.06066ZM 0 1.5L 304 1.5L 304 -1.5L 0 -1.5L 0 1.5Z"/>
<path id="path9_stroke" d="M 0 0L 7.46882 0L 7.46882 -2L 0 -2L 0 0ZM 22.4064 0L 37.3441 0L 37.3441 -2L 22.4064 -2L 22.4064 0ZM 52.2817 0L 67.2193 0L 67.2193 -2L 52.2817 -2L 52.2817 0ZM 82.157 0L 97.0946 0L 97.0946 -2L 82.157 -2L 82.157 0ZM 112.032 0L 126.97 0L 126.97 -2L 112.032 -2L 112.032 0ZM 141.907 0L 156.845 0L 156.845 -2L 141.907 -2L 141.907 0ZM 171.783 0L 186.72 0L 186.72 -2L 171.783 -2L 171.783 0ZM 201.658 0L 216.596 0L 216.596 -2L 201.658 -2L 201.658 0ZM 231.533 0L 239.002 0L 239.002 -2L 231.533 -2L 231.533 0Z"/>
<path id="path10_stroke" d="M 335.061 1.06066C 335.646 0.474874 335.646 -0.474874 335.061 -1.06066L 325.515 -10.6066C 324.929 -11.1924 323.979 -11.1924 323.393 -10.6066C 322.808 -10.0208 322.808 -9.07107 323.393 -8.48528L 331.879 0L 323.393 8.48528C 322.808 9.07107 322.808 10.0208 323.393 10.6066C 323.979 11.1924 324.929 11.1924 325.515 10.6066L 335.061 1.06066ZM 0 1.5L 334 1.5L 334 -1.5L 0 -1.5L 0 1.5Z"/>
<path id="path11_stroke" d="M 0.182581 39.952L 313.828 1.48885L 313.463 -1.48885L -0.182581 36.9743L 0.182581 39.952Z"/>
<path id="path12_stroke" d="M 401.061 1.06066C 401.646 0.474874 401.646 -0.474874 401.061 -1.06066L 391.515 -10.6066C 390.929 -11.1924 389.979 -11.1924 389.393 -10.6066C 388.808 -10.0208 388.808 -9.07107 389.393 -8.48528L 397.879 0L 389.393 8.48528C 388.808 9.07107 388.808 10.0208 389.393 10.6066C 389.979 11.1924 390.929 11.1924 391.515 10.6066L 401.061 1.06066ZM 0 1.5L 400 1.5L 400 -1.5L 0 -1.5L 0 1.5Z"/>
<path id="path13_stroke" d="M 0 0L 7.47176 0L 7.47176 -2L 0 -2L 0 0ZM 22.4153 0L 37.3588 0L 37.3588 -2L 22.4153 -2L 22.4153 0ZM 52.3023 0L 67.2459 0L 67.2459 -2L 52.3023 -2L 52.3023 0ZM 82.1894 0L 97.1329 0L 97.1329 -2L 82.1894 -2L 82.1894 0ZM 112.076 0L 127.02 0L 127.02 -2L 112.076 -2L 112.076 0ZM 141.963 0L 156.907 0L 156.907 -2L 141.963 -2L 141.963 0ZM 171.851 0L 186.794 0L 186.794 -2L 171.851 -2L 171.851 0ZM 201.738 0L 216.681 0L 216.681 -2L 201.738 -2L 201.738 0ZM 231.625 0L 246.568 0L 246.568 -2L 231.625 -2L 231.625 0ZM 261.512 0L 276.455 0L 276.455 -2L 261.512 -2L 261.512 0ZM 291.399 0L 306.342 0L 306.342 -2L 291.399 -2L 291.399 0ZM 321.286 0L 336.229 0L 336.229 -2L 321.286 -2L 321.286 0ZM 351.173 0L 366.116 0L 366.116 -2L 351.173 -2L 351.173 0ZM 381.06 0L 396.003 0L 396.003 -2L 381.06 -2L 381.06 0ZM 410.947 0L 425.89 0L 425.89 -2L 410.947 -2L 410.947 0ZM 440.834 0L 448.306 0L 448.306 -2L 440.834 -2L 440.834 0Z"/>
<path id="path14_stroke" d="M 511.061 1.06066C 511.646 0.474874 511.646 -0.474874 511.061 -1.06066L 501.515 -10.6066C 500.929 -11.1924 499.979 -11.1924 499.393 -10.6066C 498.808 -10.0208 498.808 -9.07107 499.393 -8.48528L 507.879 0L 499.393 8.48528C 498.808 9.07107 498.808 10.0208 499.393 10.6066C 499.979 11.1924 500.929 11.1924 501.515 10.6066L 511.061 1.06066ZM 0 1.5L 510 1.5L 510 -1.5L 0 -1.5L 0 1.5Z"/>
<path id="path15_stroke" d="M 183.065 238.461L 183.725 239.808L 183.065 238.461ZM 254.396 95.8266L 255.295 97.0271L 254.396 95.8266ZM 0.406908 273.444C 48.6633 259.837 84.4046 256.316 113.124 253.764C 141.758 251.218 163.648 249.645 183.725 239.808L 182.405 237.114C 162.935 246.654 141.677 248.214 112.858 250.775C 84.1245 253.329 48.1069 256.889 -0.406908 270.556L 0.406908 273.444ZM 183.725 239.808C 195.991 233.797 202.127 224.989 205.529 214.404C 208.873 203.964 209.594 191.758 211.055 178.783C 213.966 152.933 219.86 123.573 255.295 97.0271L 253.496 94.6261C 217.102 121.891 211.025 152.238 208.074 178.447C 206.605 191.503 205.923 203.414 202.673 213.486C 199.482 223.415 193.833 231.514 182.405 237.114L 183.725 239.808ZM 255.295 97.0271C 296.113 66.4484 319.603 49.8249 341.939 37.1945C 364.256 24.5695 385.399 15.9485 421.56 1.39148L 420.44 -1.39148C 384.273 13.1681 362.948 21.8695 340.462 34.5832C 317.996 47.2916 294.347 64.0232 253.496 94.6261L 255.295 97.0271Z"/>
<path id="path16_stroke" d="M 78.6678 -0.345792C 78.4768 -0.864005 77.9019 -1.12928 77.3836 -0.938297L 68.9389 2.17392C 68.4207 2.36491 68.1554 2.93982 68.3464 3.45803C 68.5374 3.97625 69.1123 4.24152 69.6305 4.05054L 77.1369 1.28412L 79.9034 8.79058C 80.0943 9.30879 80.6693 9.57407 81.1875 9.38308C 81.7057 9.1921 81.971 8.61719 81.78 8.09897L 78.6678 -0.345792ZM 0.908003 168.879L 1.93076 166.662L 0.114753 165.824L -0.908003 168.041L 0.908003 168.879ZM 3.97627 162.229L 6.02178 157.796L 4.20578 156.958L 2.16027 161.391L 3.97627 162.229ZM 8.06729 153.363L 10.1128 148.929L 8.2968 148.091L 6.25129 152.525L 8.06729 153.363ZM 12.1583 144.496L 14.2038 140.063L 12.3878 139.225L 10.3423 143.658L 12.1583 144.496ZM 16.2493 135.63L 18.2949 131.197L 16.4788 130.359L 14.4333 134.792L 16.2493 135.63ZM 20.3404 126.764L 22.3859 122.33L 20.5699 121.493L 18.5244 125.926L 20.3404 126.764ZM 24.4314 117.897L 26.4769 113.464L 24.6609 112.626L 22.6154 117.059L 24.4314 117.897ZM 28.5224 109.031L 30.5679 104.598L 28.7519 103.76L 26.7064 108.193L 28.5224 109.031ZM 32.6134 100.165L 34.6589 95.7316L 32.8429 94.8937L 30.7974 99.3268L 32.6134 100.165ZM 36.7045 91.2985L 38.75 86.8653L 36.934 86.0274L 34.8885 90.4605L 36.7045 91.2985ZM 40.7955 82.4322L 42.841 77.999L 41.025 77.1611L 38.9795 81.5942L 40.7955 82.4322ZM 44.8865 73.5659L 46.932 69.1327L 45.116 68.2948L 43.0705 72.728L 44.8865 73.5659ZM 48.9775 64.6996L 51.023 60.2664L 49.207 59.4285L 47.1615 63.8617L 48.9775 64.6996ZM 53.0686 55.8333L 55.1141 51.4002L 53.2981 50.5622L 51.2525 54.9954L 53.0686 55.8333ZM 57.1596 46.967L 59.2051 42.5339L 57.3891 41.6959L 55.3436 46.1291L 57.1596 46.967ZM 61.2506 38.1007L 63.2961 33.6676L 61.4801 32.8296L 59.4346 37.2628L 61.2506 38.1007ZM 65.3416 29.2344L 67.3871 24.8013L 65.5711 23.9633L 63.5256 28.3965L 65.3416 29.2344ZM 69.4326 20.3681L 71.4782 15.935L 69.6622 15.0971L 67.6166 19.5302L 69.4326 20.3681ZM 73.5237 11.5018L 75.5692 7.06869L 73.7532 6.23076L 71.7077 10.6639L 73.5237 11.5018ZM 77.6147 2.63554L 78.6374 0.418975L 76.8214 -0.418954L 75.7987 1.79761L 77.6147 2.63554ZM 79.6061 -0.691594C 79.2241 -1.72802 78.0743 -2.25857 77.0378 -1.8766L 60.1483 4.34784C 59.1119 4.7298 58.5813 5.87963 58.9633 6.91606C 59.3453 7.95248 60.4951 8.48303 61.5315 8.10107L 76.5444 2.56823L 82.0773 17.5811C 82.4592 18.6176 83.6091 19.1481 84.6455 18.7662C 85.6819 18.3842 86.2125 17.2344 85.8305 16.1979L 79.6061 -0.691594ZM 1.81601 169.297L 2.83876 167.081L -0.793249 165.405L -1.81601 167.622L 1.81601 169.297ZM 4.88427 162.648L 6.92978 158.215L 3.29777 156.539L 1.25226 160.972L 4.88427 162.648ZM 8.9753 153.781L 11.0208 149.348L 7.3888 147.672L 5.34329 152.106L 8.9753 153.781ZM 13.0663 144.915L 15.1118 140.482L 11.4798 138.806L 9.43431 143.239L 13.0663 144.915ZM 17.1573 136.049L 19.2029 131.616L 15.5708 129.94L 13.5253 134.373L 17.1573 136.049ZM 21.2484 127.183L 23.2939 122.749L 19.6619 121.074L 17.6164 125.507L 21.2484 127.183ZM 25.3394 118.316L 27.3849 113.883L 23.7529 112.207L 21.7074 116.64L 25.3394 118.316ZM 29.4304 109.45L 31.4759 105.017L 27.8439 103.341L 25.7984 107.774L 29.4304 109.45ZM 33.5214 100.584L 35.567 96.1506L 31.9349 94.4747L 29.8894 98.9079L 33.5214 100.584ZM 37.6125 91.7174L 39.658 87.2843L 36.026 85.6084L 33.9805 90.0416L 37.6125 91.7174ZM 41.7035 82.8511L 43.749 78.418L 40.117 76.7421L 38.0715 81.1753L 41.7035 82.8511ZM 45.7945 73.9848L 47.84 69.5517L 44.208 67.8758L 42.1625 72.309L 45.7945 73.9848ZM 49.8855 65.1186L 51.931 60.6854L 48.299 59.0096L 46.2535 63.4427L 49.8855 65.1186ZM 53.9766 56.2523L 56.0221 51.8191L 52.3901 50.1433L 50.3445 54.5764L 53.9766 56.2523ZM 58.0676 47.386L 60.1131 42.9528L 56.4811 41.277L 54.4356 45.7101L 58.0676 47.386ZM 62.1586 38.5197L 64.2041 34.0865L 60.5721 32.4107L 58.5266 36.8438L 62.1586 38.5197ZM 66.2496 29.6534L 68.2951 25.2202L 64.6631 23.5444L 62.6176 27.9775L 66.2496 29.6534ZM 70.3407 20.7871L 72.3862 16.3539L 68.7542 14.6781L 66.7086 19.1112L 70.3407 20.7871ZM 74.4317 11.9208L 76.4772 7.48765L 72.8452 5.81179L 70.7997 10.2449L 74.4317 11.9208ZM 78.5227 3.05451L 79.5455 0.837939L 75.9134 -0.837918L 74.8907 1.37865L 78.5227 3.05451Z"/>
<path id="path17_stroke" d="M 0 5L 878 5L 878 -5L 0 -5L 0 5Z"/>
<path id="path18_fill" d="M 104.98 186L 11.8164 186L 11.8164 173.012L 61.0352 118.324C 68.3268 110.056 73.3398 103.35 76.0742 98.207C 78.8737 92.9987 80.2734 87.6276 80.2734 82.0938C 80.2734 74.6719 78.0273 68.5846 73.5352 63.832C 69.043 59.0794 63.0534 56.7031 55.5664 56.7031C 46.582 56.7031 39.5833 59.2747 34.5703 64.418C 29.6224 69.4961 27.1484 76.5924 27.1484 85.707L 9.08203 85.707C 9.08203 72.6211 13.2812 62.0417 21.6797 53.9688C 30.1432 45.8958 41.4388 41.8594 55.5664 41.8594C 68.7826 41.8594 79.2318 45.3424 86.9141 52.3086C 94.5964 59.2096 98.4375 68.4219 98.4375 79.9453C 98.4375 93.9427 89.5182 110.609 71.6797 129.945L 33.5938 171.254L 104.98 171.254L 104.98 186Z"/>
<path id="path19_stroke" d="M 0 0L 96 0L 96 -5L 0 -5L 0 0Z"/>
<path id="path20_stroke" d="M 0 0L 134 0L 134 -16L 0 -16L 0 0Z"/>
</defs>
</svg>
